<svg width="10" height="11" viewBox="0 0 10 11" fill="none" xmlns="http://www.w3.org/2000/svg">
<path fill-rule="evenodd" clip-rule="evenodd" d="M1.4734 8.84895C1.4674 8.84298 1.46141 8.837 1.45544 8.831L1.4734 8.84895ZM2.12312 9.39445C2.9367 9.96775 3.92899 10.3044 4.99992 10.3044C7.76133 10.3044 9.99989 8.06588 9.99989 5.30447C9.99989 4.23354 9.6632 3.24125 9.0899 2.42767L2.12312 9.39445Z" fill="#F19FC3"/>
<path d="M9.74994 5.30441C9.74994 7.92775 7.62331 10.0544 4.99997 10.0544C2.37663 10.0544 0.25 7.92775 0.25 5.30441C0.25 2.68108 2.37663 0.554443 4.99997 0.554443C7.62331 0.554443 9.74994 2.68108 9.74994 5.30441Z" stroke="#F19FC3" stroke-width="0.5"/>
</svg>
